<?xml version="1.0" encoding="UTF-8"?>
<svg width="752pt" height="752pt" version="1.1" viewBox="0 0 752 752" xmlns="http://www.w3.org/2000/svg">
 <g>
  <path d="m362.54 522.29h26.934v70.16h-26.934z"/>
  <path d="m307.89 278.59h136.22v61.484h-136.22z"/>
  <path d="m447.12 159.56h-142.24c-44.238 0-79.383 37.148-76.898 81.281l8.5547 151.89c4.1641 73.918 65.367 131.73 139.46 131.73s135.3-57.809 139.46-131.73l8.5547-151.89c2.4805-44.129-32.664-81.281-76.902-81.281zm-93.191 272.8h-44.148v-26.934h44.148zm88.293 0h-44.148v-26.934h44.148zm28.824-78.82c0 7.4375-6.0312 13.469-13.469 13.469l-163.15-0.003907c-7.4375 0-13.469-6.0273-13.469-13.469v-88.418c0-7.4375 6.0312-13.469 13.469-13.469h163.15c7.4375 0 13.469 6.0273 13.469 13.469z"/>
 </g>
</svg>