<?xml version="1.0" encoding="UTF-8"?>
<svg width="752pt" height="752pt" version="1.1" viewBox="0 0 752 752" xmlns="http://www.w3.org/2000/svg">
 <g>
  <path d="m375.37 479.6c-14.316-0.035156-28.301 4.3047-40.082 12.434l8.4688 12.133c9.375-6.3398 20.426-9.7383 31.742-9.7656 11.316-0.03125 22.387 3.3125 31.797 9.5977l8.3086-12.242c-11.754-7.9688-25.637-12.203-39.84-12.156z"/>
  <path d="m319.05 466.59 8.0781 12.402c14.371-9.2891 31.121-14.215 48.234-14.195h0.34375-0.003907c17.043-0.085937 33.742 4.793 48.055 14.047l8.0781-12.398v-0.003906c-16.895-10.75-36.508-16.453-56.531-16.441-19.961-0.015625-39.496 5.75-56.254 16.59z"/>
  <path d="m351.33 515.88 7.6172 12.688v0.003906c10.211-5.9375 22.809-5.9805 33.062-0.11719l7.5-12.754c-7.3359-4.2109-15.656-6.4102-24.113-6.3789-8.4609 0.03125-16.762 2.293-24.066 6.5586z"/>
  <path d="m376 538.79c4.0859 0 7.3984 4.0859 7.3984 7.3984 0 4.0859-3.3125 7.3984-7.3984 7.3984s-7.3984-4.0859-7.3984-7.3984c0-4.0859 3.3125-7.3984 7.3984-7.3984z"/>
  <path d="m239.34 378.16c-11.344 15.672-14.414 35.859-8.2461 54.199 3.8867 11.727 11.406 21.91 21.469 29.074 10.066 7.1641 22.148 10.934 34.5 10.77v-14.801c-9.1953 0.074218-18.184-2.7383-25.695-8.043-7.5156-5.3047-13.176-12.832-16.184-21.523-4.6953-13.84-2.418-29.094 6.1172-40.957 4.7422-6.6172 11.234-11.781 18.75-14.91 7.5156-3.1289 15.754-4.1016 23.793-2.8047 2.0234 0.30469 4.0859-0.24609 5.6914-1.5195 1.6055-1.2695 2.6133-3.1484 2.7812-5.1914 1.9219-23.309 14.762-44.336 34.621-56.691 19.859-12.355 44.395-14.582 66.152-6.0039 21.762 8.5781 38.176 26.949 44.262 49.531 1 3.6992 4.6562 6.0234 8.4258 5.3594 12.578-2.2188 28.133-1.5859 47.965 19.906 8.2656 8.7148 12.859 20.273 12.836 32.281-0.39844 13.496-6.0195 26.312-15.676 35.746-9.6602 9.4297-22.605 14.746-36.109 14.82v14.801c17.359-0.097657 34.004-6.9297 46.426-19.059 12.418-12.133 19.645-28.609 20.152-45.961 0.10547-15.848-5.8945-31.125-16.754-42.668-17.512-18.977-34.727-26.926-54.898-25.289-8.7305-24.953-28.133-44.711-52.926-53.895-24.789-9.1836-52.383-6.8281-75.262 6.4141-22.879 13.246-38.656 36.008-43.035 62.078-19.387-0.45312-37.758 8.6445-49.156 24.336z"/>
  <path d="m457.4 413c-0.003907-3.9258-1.5664-7.6875-4.3398-10.461-2.7734-2.7734-6.5352-4.3359-10.461-4.3398h-133.2c-3.9219 0.003906-7.6836 1.5664-10.457 4.3398-2.7773 2.7734-4.3359 6.5352-4.3398 10.461v177.59c0.003906 3.9219 1.5625 7.6836 4.3398 10.461 2.7734 2.7734 6.5352 4.332 10.457 4.3359h133.2c3.9258-0.003906 7.6875-1.5625 10.461-4.3359 2.7734-2.7773 4.3359-6.5391 4.3398-10.461zm-148 177.59v-177.59h133.2l0.011719 177.59z"/>
  <path d="m368.6 204.76v60.25h14.801v-60.25c9.3789-2.4219 16.98-9.2812 20.352-18.367 3.3672-9.082 2.0781-19.242-3.4531-27.195-5.5352-7.9531-14.609-12.695-24.301-12.695-9.6875 0-18.762 4.7422-24.297 12.695-5.5312 7.9531-6.8242 18.113-3.4531 27.195 3.3672 9.0859 10.969 15.945 20.352 18.367zm7.3984-43.348c3.9258 0 7.6914 1.5586 10.465 4.3359 2.7773 2.7734 4.3359 6.5391 4.3359 10.465 0 3.9219-1.5586 7.6875-4.3359 10.465-2.7734 2.7734-6.5391 4.332-10.465 4.332-3.9219 0-7.6875-1.5586-10.465-4.332-2.7734-2.7773-4.332-6.543-4.332-10.465 0.003906-3.9258 1.5625-7.6875 4.3359-10.461 2.7773-2.7773 6.5391-4.3359 10.461-4.3398z"/>
  <path d="m239.96 262.16c5.2695-0.023437 10.438-1.4688 14.957-4.1797l42.602 42.602 10.465-10.465-42.602-42.602h-0.003906c3.375-5.6211 4.7656-12.211 3.9531-18.719-0.81641-6.5039-3.7891-12.547-8.4453-17.164-5.6367-5.3867-13.133-8.3906-20.926-8.3906-7.7969 0-15.293 3.0039-20.93 8.3906-5.5469 5.5508-8.668 13.078-8.6641 20.926 0 7.8516 3.1172 15.379 8.668 20.93 5.5469 5.5508 13.074 8.668 20.926 8.6719zm-10.465-40.062c2.7734-2.7773 6.5391-4.3398 10.465-4.3398 3.9258 0 7.6914 1.5586 10.465 4.3359 2.7773 2.7734 4.3359 6.5391 4.3359 10.465 0 3.9258-1.5625 7.6914-4.3398 10.465-2.8164 2.6914-6.5664 4.1953-10.461 4.1953-3.8984 0-7.6484-1.5039-10.465-4.1953-2.7773-2.7734-4.3359-6.5391-4.3359-10.465 0-3.9219 1.5586-7.6875 4.3359-10.461z"/>
  <path d="m454.48 300.58 42.602-42.602c8.332 4.918 18.543 5.4414 27.336 1.4062 8.793-4.0352 15.055-12.117 16.758-21.641 1.7031-9.5234-1.3633-19.277-8.2109-26.113-5.6367-5.3867-13.129-8.3906-20.926-8.3906s-15.289 3.0039-20.926 8.3906c-4.6562 4.6172-7.6328 10.66-8.4453 17.164-0.81641 6.5078 0.57812 13.098 3.9492 18.719l-42.602 42.602zm47.094-78.484c2.7773-2.7773 6.5391-4.3398 10.465-4.3398s7.6914 1.5586 10.469 4.3359c2.7734 2.7734 4.332 6.5391 4.332 10.465 0 3.9258-1.5586 7.6914-4.3359 10.465-2.8203 2.6914-6.5664 4.1953-10.465 4.1953-3.8984 0-7.6445-1.5039-10.465-4.1953-2.7734-2.7734-4.3359-6.5391-4.3359-10.465 0-3.9219 1.5625-7.6875 4.3359-10.461z"/>
 </g>
</svg>