<?xml version="1.0" encoding="UTF-8"?>
<svg width="752pt" height="752pt" version="1.1" viewBox="0 0 752 752" xmlns="http://www.w3.org/2000/svg">
 <g>
  <path d="m402.29 493.54h150.14v39.316h-150.14z"/>
  <path d="m359.14 513.2c0 10.859-8.7812 19.66-19.613 19.66-10.832 0-19.609-8.8008-19.609-19.66 0-10.855 8.7773-19.656 19.609-19.656 10.832 0 19.613 8.8008 19.613 19.656"/>
  <path d="m268.44 493.54c-10.812 0-19.605 8.8203-19.605 19.66s8.793 19.66 19.605 19.66 19.613-8.8203 19.613-19.66-8.8008-19.66-19.613-19.66z"/>
  <path d="m568.8 431.63h-336.31c-14.758 0-26.836 12.078-26.836 26.836v49.555h-7.7539c-17.227 0-31.23-14-31.23-31.16v-51.062c0-17.227 14-31.23 31.23-31.23h185.59c16.816 0 30.473-13.727 30.473-30.543v-2.5391h3.0195c7 0 12.629-5.6953 12.629-12.629v-5.2852c-6.7969 1.6484-13.934 2.4727-21.277 2.4727s-14.551-0.89062-21.344-2.4727v5.2852c0 6.9336 5.6953 12.629 12.629 12.629h4.0508v2.5391c0 11.188-9.0586 20.246-20.18 20.246l-185.59 0.003907c-22.926 0-41.523 18.598-41.523 41.523v51.062c0 22.855 18.602 41.457 41.523 41.457h7.7539v49.555c0 14.824 12.078 26.906 26.836 26.906h336.31c14.758 0 26.836-12.078 26.836-26.906v-109.4c0-14.758-12.078-26.84-26.836-26.84zm-300.35 111.53c-16.473 0-29.926-13.453-29.926-29.992 0-16.473 13.453-29.926 29.926-29.926 16.473 0 29.926 13.453 29.926 29.926 0 16.543-13.453 29.992-29.926 29.992zm71.105 0c-16.539 0-29.926-13.453-29.926-29.992 0-16.473 13.383-29.926 29.926-29.926 16.473 0 29.855 13.453 29.855 29.926 0.003906 16.543-13.383 29.992-29.855 29.992zm223.2-5.1445c0 2.8125-2.332 5.1484-5.1484 5.1484h-160.47c-2.8125 0-5.1484-2.332-5.1484-5.1484v-49.625c0-2.8125 2.332-5.1484 5.1484-5.1484h160.47c2.8125 0 5.1484 2.332 5.1484 5.1484z"/>
  <path d="m422.75 215.68c-3.5508-13.762-11.172-20.672-14.445-20.672-3.2695 0-10.898 6.9102-14.449 20.684-10.707 41.336-21.48 41.348-21.48 54.887 0 14.867 16.453 27.426 35.934 27.426 19.473 0 35.926-12.562 35.926-27.426 0-13.516-10.77-13.527-21.484-54.898z"/>
  <path d="m459.32 206.23c-7.6172-29.309-28.07-49.008-50.996-49.008-22.992 0-43.516 19.699-51.062 49.004-9.043 35.148-22.648 37.273-22.648 64.312 0 37.41 34.281 65.203 73.715 65.203 39.797 0 73.645-28.176 73.645-65.203-0.003906-26.543-13.789-29.867-22.652-64.309zm-51.02 102.07c-25.062 0-46.227-17.273-46.227-37.723 0-18.016 11.062-15.988 21.809-57.469 4.2422-16.453 14.52-28.398 24.418-28.398 9.8945 0 20.16 11.938 24.418 28.391 10.668 41.332 21.805 39.395 21.805 57.477 0 20.449-21.168 37.723-46.223 37.723z"/>
 </g>
</svg>