<?xml version="1.0" encoding="UTF-8"?>
<svg width="752pt" height="752pt" version="1.1" viewBox="0 0 752 752" xmlns="http://www.w3.org/2000/svg">
 <g>
  <path d="m482.68 444.41c0-9.5664 0-28.703-13.395-38.27-7.6523-4.7852-17.223-5.7422-28.703-2.8711-1.9141-3.8281-4.7852-7.6523-8.6094-10.523-7.6523-5.7422-18.18-6.6953-30.617-2.8711-1.9141-2.8711-4.7852-5.7422-7.6523-8.6094-6.6953-3.8242-15.305-4.7812-24.875-2.8672v-26.789h28.703c5.7422 0 9.5664-3.8281 9.5664-9.5664v-118.64c0-22.961-18.18-41.141-41.141-41.141h-46.879c-22.961 0-41.141 18.18-41.141 41.141v117.68c0 5.7422 3.8281 9.5664 9.5664 9.5664h23.918v51.664c-7.6523 0-16.266 0.95703-22.961 4.7852-10.523 5.7422-17.223 15.309-18.18 27.746v1.9141 65.059c0 12.438 14.352 19.133 22.004 22.004 5.7422 12.438 15.309 17.223 22.004 20.09 6.6953 2.8711 9.5664 4.7852 9.5664 15.309 0 5.7422 3.8281 9.5664 9.5664 9.5664h121.5c5.7422 0 9.5664-3.8281 9.5664-9.5664v-11.48c5.7422-4.7852 14.352-16.266 18.18-33.484 0.95703-0.95703 0.95703-2.8711 0.95703-4.7852l0.007812-65.059c-0.95703 0.95703-0.95703 0.95703-0.95703 0v0zm-186.56-221c0-12.438 10.523-22.004 22.004-22.004h46.879c12.438 0 22.004 10.523 22.004 22.004v108.11h-91.848l0.003906-108.11zm25.832 304.24c-6.6953-2.8711-10.523-4.7852-14.352-13.395v-0.95703c0-0.95703-0.95703-0.95703-0.95703-1.9141 0-0.95703-0.95703-0.95703-0.95703-0.95703s-0.95703-0.95703-1.9141-0.95703-0.95703-0.95703-1.9141-0.95703h-0.95703c-4.7852-0.95703-10.523-3.8281-12.438-5.7422v-60.273-0.95703c0-6.6953 1.9141-11.48 6.6953-14.352 4.7852-2.8711 11.48-3.8281 16.266-3.8281v21.047c0 5.7422 3.8281 9.5664 9.5664 9.5664 5.7422 0 9.5664-3.8281 9.5664-9.5664v-91.848l19.141 0.007812v91.848c0 5.7422 3.8281 9.5664 9.5664 9.5664 5.7422 0 9.5664-3.8281 9.5664-9.5664v-46.883c5.7422-1.9141 10.523-0.95703 13.395 0 5.7422 3.8281 5.7422 17.223 5.7422 22.961v34.441c0 5.7422 3.8281 9.5664 9.5664 9.5664 5.7422 0 9.5664-3.8281 9.5664-9.5664v-33.484c0-2.8711 0-6.6953-0.95703-11.48 5.7422-1.9141 11.48-1.9141 13.395 0 5.7422 3.8281 5.7422 17.223 5.7422 22.961v33.484c0 5.7422 3.8281 9.5664 9.5664 9.5664 5.7422 0 9.5664-3.8281 9.5664-9.5664v-33.484-8.6094c5.7422-1.9141 10.523-1.9141 13.395 0 5.7422 3.8281 5.7422 17.223 5.7422 22.961v57.402c0 22.004-14.352 33.484-15.309 33.484v0.95703c-0.95703 0-0.95703 0.95703-0.95703 1.9141 0 0.95703-0.95703 0.95703-0.95703 1.9141s0 0.95703-0.95703 1.9141v1.9141 0.95703 2.8711h-104.28c-2.8711-15.309-12.438-20.094-19.137-22.961z"/>
  <path d="m321.95 272.2h40.184c5.7422 0 9.5664-3.8281 9.5664-9.5664v-35.398c0-5.7422-3.8281-9.5664-9.5664-9.5664h-40.184c-5.7422 0-9.5664 3.8281-9.5664 9.5664v35.398c0 4.7852 4.7852 9.5664 9.5664 9.5664zm9.5664-35.398h21.047v16.266h-21.047z"/>
  <path d="m360.21 310.46c5.7422 0 9.5664-3.8281 9.5664-9.5664 0-5.7422-3.8281-9.5664-9.5664-9.5664h-36.355c-5.7422 0-9.5664 3.8281-9.5664 9.5664 0 5.7422 3.8281 9.5664 9.5664 9.5664z"/>
 </g>
</svg>