<?xml version="1.0" encoding="UTF-8"?>
<svg width="752pt" height="752pt" version="1.1" viewBox="0 0 752 752" xmlns="http://www.w3.org/2000/svg">
 <g>
  <path d="m258.55 501.5c-6.1562-3.7891-13.734-4.7344-20.836-2.8398-7.1055 1.8945-12.785 6.6289-16.574 12.785-3.7891 6.1562-4.7344 13.734-2.8398 20.836 1.8945 7.1055 6.6289 12.785 12.785 16.574 4.2617 2.3672 8.9961 3.7891 13.734 3.7891 9.4727 0 18.941-4.7344 23.68-13.734 7.5703-12.785 3.3086-29.832-9.9492-37.41zm-18.473 6.6289c1.4219-0.47266 3.3164-0.47266 4.7344-0.47266 3.3164 0 6.1562 0.94531 8.9961 2.3672 7.1055 4.2617 10.418 12.312 8.5234 19.891l-29.836-17.051c1.9023-2.3633 4.7422-3.7852 7.582-4.7344zm-4.2617 32.68c-4.2617-2.3672-7.1055-6.1562-8.5234-10.891-0.94531-2.8398-0.94531-6.1562 0-8.9961l29.836 17.051c-5.2109 5.6758-14.207 7.0977-21.312 2.8359z"/>
  <path d="m527.07 406.79c-6.1562-3.7891-13.734-4.7344-20.836-2.8398-7.1055 1.8945-12.785 6.6289-16.574 12.785-7.5781 13.262-2.8398 29.836 9.9453 37.414 4.2617 2.3672 8.9961 3.7891 13.734 3.7891 2.3672 0 4.7344-0.47266 7.1055-0.94531 7.1055-1.8945 12.785-6.6289 16.574-12.785 7.5742-12.793 2.8359-29.84-9.9492-37.418zm-18.469 6.6289c1.4219-0.47266 3.3164-0.47266 4.7344-0.47266 3.3164 0 6.1562 0.94531 8.9961 2.3672 7.1055 4.2617 10.418 12.312 8.5234 19.891l-29.836-17.051c1.8984-2.3672 4.7383-3.7852 7.582-4.7344zm9.4688 34.57c-4.7344 1.4219-9.4727 0.47266-13.734-1.8945-7.1055-4.2617-10.418-12.312-8.5234-19.891l29.836 17.051c-1.8945 2.3672-4.7344 3.7891-7.5781 4.7344z"/>
  <path d="m447.04 494.4c-6.1562-3.7891-13.734-4.7344-20.836-3.3164-7.1055 1.8945-13.262 6.1562-17.051 12.312-3.7891 6.1562-4.7344 13.734-3.3164 20.836 1.4219 7.1055 6.1562 13.262 12.312 17.051 4.2617 2.8398 8.9961 3.7891 14.207 3.7891 2.3672 0 4.2617-0.47266 6.6289-0.94531 7.1055-1.8945 13.262-6.1562 17.051-12.312 3.7891-6.1562 4.7344-13.734 3.3164-20.836-1.4219-7.1094-5.6836-12.793-12.312-16.578zm-18.469 6.1562c1.4219-0.47266 2.8398-0.47266 4.2617-0.47266 3.3164 0 6.6289 0.94531 9.4727 2.3672 2.8398 1.4219 4.7344 3.7891 6.1562 6.6289l-33.152 8.0508c0-2.8398 0.94531-6.1562 2.3672-8.9961 2.3672-3.7891 6.6328-6.6328 10.895-7.5781zm8.5234 34.57c-4.7344 0.94531-9.4727 0.47266-13.734-1.8945-2.8398-1.4219-4.7344-3.7891-6.1562-6.6289l33.152-8.0508c0 2.8398-0.94531 6.1562-2.3672 8.5234-1.8984 4.2617-6.1602 7.1016-10.895 8.0508z"/>
  <path d="m390.68 441.36-8.5234-4.7344 55.406-26.996c10.418-5.2109 14.68-17.996 9.9453-28.414-5.2109-10.418-17.996-14.68-28.414-9.9453l-54.934 26.992c-5.2109 2.3672-8.9961 6.6289-10.891 12.312-0.94531 2.8398-1.4219 6.1562-0.94531 8.9961l-14.68-8.0508c-10.418-5.6836-23.207-1.8945-28.887 8.0508-2.8398 4.7344-3.3164 10.891-1.8945 16.102 1.4219 5.6836 5.2109 9.9453 9.9453 12.785l53.516 29.836c3.3164 1.8945 6.6289 2.8398 10.418 2.8398 7.5781 0 14.68-3.7891 18.469-10.891 2.8398-4.7344 3.3164-10.891 1.8945-16.102-1.9023-5.2031-5.2188-9.9414-10.426-12.781zm32.203-61.566c1.8945-0.94531 3.3164-1.4219 5.2109-1.4219 4.2617 0 8.5234 2.3672 10.418 6.6289 2.8398 5.6836 0.47266 12.785-5.2109 15.629l-23.207 11.367-10.418-20.363zm-61.094 34.098c0.94531-2.8398 3.3164-5.2109 6.1562-6.6289l23.207-11.367 10.418 21.312-23.203 10.891c-5.6836 2.8398-12.785 0.47266-15.629-5.2109-1.4219-2.8398-1.8945-6.1523-0.94922-8.9961zm-46.41 19.418c-0.94531-2.8398-0.47266-6.1562 0.94531-8.9961 2.3672-3.7891 6.1562-6.1562 10.418-6.1562 1.8945 0 3.7891 0.47266 5.6836 1.4219l22.73 12.785-11.367 20.363-22.73-12.785c-2.8398-0.94922-4.7305-3.793-5.6797-6.6328zm75.301 32.676c-3.3164 5.6836-10.418 7.5781-16.102 4.7344l-22.73-12.785 11.367-20.363 22.73 12.785c2.8398 1.4219 4.7344 4.2617 5.6836 7.1055 0.94531 2.3672 0.46875 5.6836-0.94922 8.5234z"/>
  <path d="m280.81 364.16c-5.2109-2.3672-10.891-2.8398-16.102-0.94531-5.2109 1.8945-9.9453 5.6836-12.312 10.891l-26.992 54.934c-5.2109 10.418-0.94531 23.207 9.4727 28.414 2.8398 1.4219 6.1562 2.3672 9.4727 2.3672 8.0508 0 15.629-4.2617 18.941-11.84l27.469-54.938c2.3672-5.2109 2.8398-10.891 0.94531-16.102-1.8984-6.1484-5.6875-10.41-10.895-12.781zm-26.047 79.09c-2.8398 5.6836-9.9453 8.0508-15.629 5.2109-5.6836-2.8398-8.0508-9.9453-5.2109-15.629l11.367-23.207 21.312 10.418zm27.465-54.934-11.367 23.207-21.312-10.418 11.367-23.207c1.4219-2.8398 3.7891-4.7344 6.6289-6.1562 1.4219-0.47266 2.3672-0.47266 3.7891-0.47266 1.8945 0 3.3164 0.47266 5.2109 1.4219 2.8398 1.4219 4.7344 3.7891 6.1562 6.6289 0.94922 2.8359 0.47656 6.1523-0.47266 8.9961z"/>
  <path d="m531.81 211.2h-314.93c-10.418 0-18.941 8.5234-18.941 18.941v81.93c0 10.418 8.5234 18.941 18.941 18.941h315.41c10.418 0 18.941-8.5234 18.941-18.941v-81.93c-0.47266-10.418-9-18.941-19.418-18.941zm-225.42 9.4727h38.832v100.87h-38.832zm-9.4727 100.87h-38.832l-0.003906-100.87h38.832zm58.25-100.87h38.832v100.87h-38.832zm48.305 0h38.836v100.87h-38.832zm48.305 0h38.832v100.87h-38.832zm-244.37 91.398v-81.93c0-5.2109 4.2617-9.4727 9.4727-9.4727h31.73v100.87h-31.73c-5.2109 0.003906-9.4727-4.2578-9.4727-9.4688zm333.88 0c0 5.2109-4.2617 9.4727-9.4727 9.4727h-31.73v-100.87h31.73c5.2109 0 9.4727 4.2617 9.4727 9.4727z"/>
 </g>
</svg>