<?xml version="1.0" encoding="UTF-8"?>
<svg width="752pt" height="752pt" version="1.1" viewBox="0 0 752 752" xmlns="http://www.w3.org/2000/svg">
 <path d="m292.61 193.89 87.613-25.086c0.66406-0.10547 1.3359-0.10547 2 0 8.1367 0 15.945 3.2227 21.715 8.9648 5.7656 5.7422 9.0273 13.531 9.0664 21.672v146.07c-0.097656 8.1055-3.3828 15.848-9.1406 21.555-5.7617 5.7031-13.535 8.9141-21.641 8.9297-0.66406 0.10938-1.3359 0.10938-2 0l-87.613-24.938c-3.293-0.91797-5.5273-3.9805-5.4023-7.3984v-142.59c-0.023437-3.3398 2.1914-6.2773 5.4023-7.1797zm216 190.32c-0.38281 3.5508-3.25 6.3203-6.8086 6.5859h-7.3984v75.699c0 64.379-38.184 116.69-85.098 116.69-15.801-0.25-31.02-5.9766-43.066-16.203-4.082 0.91406-8.25 1.3828-12.434 1.4062-37 0-66.598-36.035-66.598-80.434v-111.96h-20.645c-8.2539-0.019531-16.168-3.3047-22.004-9.1445-5.8398-5.8398-9.1289-13.75-9.1484-22.008v-144.89c0.019531-8.2539 3.3086-16.168 9.1484-22.004 5.8359-5.8398 13.75-9.1289 22.004-9.1484h87.242l-63.266 17.984c-3.1016 0.88281-5.8242 2.7578-7.7617 5.3359s-2.9805 5.7188-2.9688 8.9453v142.89c0.003906 3.2109 1.0547 6.3359 2.9883 8.8984 1.9375 2.5625 4.6523 4.4258 7.7422 5.3086l62.602 17.832h-14.133c0.19531 0.57422 0.32031 1.1719 0.36719 1.7773v88.797c0 34.852 12.137 65.637 30.488 84.062 20.941-8.5117 35.742-33.301 35.742-62.605v-1.0352h-7.4023c-3.9219 0-7.6875-1.5586-10.465-4.332-2.7734-2.7773-4.332-6.543-4.332-10.465-0.03125-5.4492 1.9453-10.715 5.5469-14.801-10.816-6.9727-18.078-18.297-19.902-31.039-1.8203-12.742 1.9766-25.645 10.41-35.371 8.4336-9.7227 20.672-15.309 33.543-15.309s25.109 5.5859 33.543 15.309c8.4336 9.7266 12.23 22.629 10.41 35.371-1.8242 12.742-9.0859 24.066-19.902 31.039 3.6016 4.0859 5.5781 9.3516 5.5469 14.801 0 3.9219-1.5586 7.6875-4.332 10.465-2.7773 2.7734-6.543 4.332-10.465 4.332h-7.4023v1.0352c1.0977 29.367-13.43 57.121-38.18 72.961 8.1719 4.9141 17.543 7.4766 27.082 7.4023 38.773 0 70.297-45.805 70.297-102.12v-75.477h-7.3984c-3.5-0.16406-6.4023-2.7578-6.957-6.2148-14.723-10.43-23.23-27.551-22.645-45.582 0-28.562 19.906-51.797 44.398-51.797 24.492 0 44.398 23.234 44.398 51.797 0.40234 17.922-8.1445 34.871-22.789 45.211zm-110.41 43.586c0 1.9609 0.78125 3.8438 2.168 5.2305 1.3867 1.3867 3.2695 2.168 5.2344 2.168h14.801-0.003906c4.0898 0 7.4023-3.3125 7.4023-7.3984 0-4.0898-3.3125-7.4023-7.4023-7.4023h-7.3984v-7.3984c0-4.0859-3.3125-7.3984-7.3984-7.3984-4.0898 0-7.4023 3.3125-7.4023 7.3984zm-45.359 125.79c-19.176-24.926-29.277-55.648-28.637-87.094v-88.797c0.050781-0.60547 0.17578-1.1992 0.37109-1.7773h-22.57v112.11c0 35.965 22.719 64.898 50.836 65.562z"/>
</svg>